<?xml version="1.0" standalone="no"?>
<!DOCTYPE svg PUBLIC "-//W3C//DTD SVG 20010904//EN"
 "http://www.w3.org/TR/2001/REC-SVG-20010904/DTD/svg10.dtd">
<svg version="1.0" xmlns="http://www.w3.org/2000/svg"
 width="1472.000000pt" height="1472.000000pt" viewBox="0 0 1472.000000 1472.000000"
 preserveAspectRatio="xMidYMid meet">
<metadata>
Created by potrace 1.14, written by Peter Selinger 2001-2017
</metadata>
<g transform="translate(0.000000,1472.000000) scale(0.100000,-0.100000)"
fill="#000000" stroke="none">
<path d="M4918 12198 c-1724 -1724 -2438 -2445 -2439 -2461 -1 -12 -2 -31 -3
-42 0 -11 2 -28 6 -37 5 -9 4 -19 -1 -23 -6 -3 -6 -17 -1 -35 5 -18 5 -32 -1
-35 -5 -4 -5 -14 1 -25 7 -13 7 -21 0 -25 -8 -5 -8 -11 -1 -19 6 -7 8 -16 5
-19 -8 -8 -9 -85 -1 -93 3 -3 2 -17 -3 -30 -5 -13 -6 -25 -1 -28 8 -5 5 -71
-4 -86 -3 -6 -1 -10 5 -10 7 0 8 -6 1 -18 -6 -11 -6 -24 0 -34 6 -10 6 -19 0
-22 -6 -4 -6 -18 -1 -36 5 -18 5 -32 -1 -35 -5 -4 -5 -14 1 -25 7 -13 7 -21 0
-25 -8 -5 -8 -11 -1 -19 6 -7 8 -16 5 -19 -8 -8 -9 -85 -1 -93 3 -3 2 -17 -3
-30 -5 -13 -6 -25 -1 -28 8 -5 5 -71 -4 -86 -3 -6 -1 -10 5 -10 7 0 8 -6 1
-18 -6 -11 -6 -24 0 -34 6 -10 6 -19 0 -22 -6 -4 -6 -18 -1 -36 5 -18 5 -32
-1 -35 -5 -4 -5 -14 1 -25 7 -13 7 -21 0 -25 -8 -5 -8 -11 -1 -19 6 -7 8 -16
5 -19 -8 -8 -9 -85 -1 -93 3 -3 2 -17 -3 -30 -5 -13 -6 -25 -1 -28 8 -5 5 -71
-4 -86 -3 -6 -1 -10 5 -10 7 0 8 -6 1 -18 -6 -11 -6 -24 0 -34 6 -10 6 -19 0
-22 -6 -4 -6 -18 -1 -36 5 -18 5 -32 -1 -35 -5 -4 -5 -14 1 -25 7 -13 7 -21 0
-25 -8 -5 -8 -11 -1 -19 6 -7 8 -16 5 -19 -8 -8 -9 -85 -1 -93 3 -3 2 -17 -3
-30 -5 -13 -6 -25 -1 -28 8 -5 5 -71 -4 -86 -3 -6 -1 -10 5 -10 7 0 8 -6 1
-18 -6 -11 -6 -24 0 -34 6 -10 6 -19 0 -22 -6 -4 -6 -18 -1 -36 5 -18 5 -32
-1 -35 -5 -4 -5 -14 1 -25 7 -13 7 -21 0 -25 -8 -5 -8 -11 -1 -19 6 -7 8 -16
5 -19 -8 -8 -9 -85 -1 -93 3 -3 2 -17 -3 -30 -5 -13 -6 -25 -1 -28 8 -5 5 -71
-4 -86 -3 -6 -1 -10 5 -10 7 0 8 -6 1 -18 -6 -11 -6 -24 0 -34 6 -10 6 -19 0
-22 -6 -4 -6 -18 -1 -36 5 -18 5 -32 -1 -35 -5 -4 -5 -14 1 -25 7 -13 7 -21 0
-25 -7 -5 -8 -11 -1 -19 5 -6 7 -17 3 -23 -8 -13 -7 -81 2 -90 3 -3 1 -14 -4
-24 -6 -10 -6 -20 -2 -23 5 -3 6 -26 2 -50 -4 -25 -3 -51 1 -58 4 -6 3 -20 -2
-29 -5 -10 -5 -20 -1 -23 5 -3 6 -26 2 -50 -4 -25 -3 -51 1 -58 4 -6 3 -20 -2
-29 -5 -10 -5 -20 -1 -23 5 -3 6 -26 2 -50 -4 -25 -3 -51 1 -58 4 -6 3 -20 -2
-29 -5 -10 -5 -20 -1 -23 5 -3 6 -26 2 -50 -4 -25 -3 -51 1 -58 4 -6 3 -20 -2
-29 -5 -10 -5 -20 -1 -23 5 -3 6 -26 2 -50 -4 -25 -3 -51 1 -58 4 -6 3 -20 -2
-29 -5 -10 -5 -20 -1 -23 5 -3 6 -26 2 -50 -4 -25 -3 -51 1 -58 4 -6 3 -20 -2
-29 -5 -10 -5 -20 -1 -23 5 -3 6 -26 2 -50 -4 -25 -3 -51 1 -58 4 -6 3 -20 -2
-29 -5 -10 -5 -20 -1 -23 5 -3 6 -26 2 -50 -4 -25 -3 -51 1 -58 4 -6 3 -20 -2
-29 -5 -10 -5 -20 -1 -23 5 -3 6 -26 2 -50 -4 -25 -3 -51 1 -58 4 -6 3 -20 -2
-29 -5 -10 -5 -20 -1 -23 5 -3 6 -26 2 -50 -4 -25 -3 -51 1 -58 4 -6 3 -20 -2
-29 -5 -10 -5 -20 -1 -23 5 -3 6 -26 2 -50 -4 -25 -3 -51 1 -58 4 -6 3 -20 -2
-29 -5 -10 -5 -20 -1 -23 5 -3 6 -26 2 -50 -4 -25 -3 -51 1 -58 4 -6 3 -20 -2
-29 -5 -10 -5 -20 -1 -23 5 -3 6 -26 2 -50 -4 -25 -3 -51 1 -58 4 -6 3 -20 -2
-29 -5 -10 -5 -20 -1 -23 5 -3 6 -26 2 -50 -4 -25 -3 -51 1 -58 4 -6 3 -20 -2
-29 -5 -10 -5 -20 -1 -23 5 -3 6 -26 2 -50 -4 -25 -3 -51 1 -58 4 -6 3 -20 -2
-29 -5 -10 -6 -20 -1 -23 9 -5 6 -81 -3 -96 -3 -6 -1 -10 5 -10 7 0 8 -6 1
-18 -6 -11 -6 -24 0 -34 6 -10 6 -19 0 -22 -6 -4 -6 -18 -1 -36 5 -18 5 -32
-1 -35 -5 -4 -5 -14 1 -25 7 -13 7 -21 0 -25 -8 -5 -8 -11 -1 -19 6 -7 8 -16
5 -19 -8 -8 -9 -85 -1 -93 3 -3 2 -17 -3 -30 -5 -13 -6 -25 -1 -28 8 -5 5 -71
-4 -86 -3 -6 -1 -10 5 -10 7 0 8 -6 1 -18 -6 -11 -6 -24 0 -34 6 -10 6 -19 0
-22 -6 -4 -6 -18 -1 -36 5 -18 5 -32 -1 -35 -5 -4 -5 -14 1 -25 7 -13 7 -21 0
-25 -8 -5 -8 -11 -1 -19 6 -7 8 -16 5 -19 -8 -8 -9 -85 -1 -93 3 -3 2 -17 -3
-30 -5 -13 -6 -25 -1 -28 8 -5 5 -71 -4 -86 -3 -6 -1 -10 5 -10 7 0 8 -6 1
-18 -6 -11 -6 -24 0 -34 6 -10 6 -19 0 -22 -6 -4 -6 -18 -1 -36 5 -18 5 -32
-1 -35 -5 -4 -5 -14 1 -25 7 -13 7 -21 0 -25 -8 -5 -8 -11 -1 -19 6 -7 8 -16
5 -19 -8 -8 -9 -85 -1 -93 3 -3 2 -17 -3 -30 -5 -13 -6 -25 -1 -28 8 -5 5 -71
-4 -86 -3 -6 -1 -10 5 -10 7 0 8 -6 1 -18 -6 -11 -6 -24 0 -34 6 -10 6 -19 0
-22 -6 -4 -6 -18 -1 -36 5 -18 5 -32 -1 -35 -5 -4 -5 -14 1 -25 7 -13 7 -21 0
-25 -8 -5 -8 -11 -1 -19 6 -7 8 -16 5 -19 -8 -8 -9 -85 -1 -93 3 -3 2 -17 -3
-30 -5 -13 -6 -25 -1 -28 8 -5 5 -71 -4 -86 -3 -6 -1 -10 5 -10 7 0 8 -6 1
-18 -6 -11 -6 -24 0 -34 6 -10 6 -19 0 -22 -6 -4 -6 -18 -1 -36 5 -18 5 -32
-1 -35 -5 -4 -5 -14 1 -25 7 -13 7 -21 0 -25 -8 -5 -8 -11 -1 -19 6 -7 8 -16
5 -19 -8 -8 -9 -85 -1 -93 3 -3 2 -17 -3 -30 -5 -13 -6 -25 -1 -28 8 -5 5 -71
-4 -86 -3 -6 -1 -10 5 -10 7 0 8 -6 1 -18 -6 -11 -6 -24 0 -34 6 -10 6 -19 0
-22 -6 -4 -6 -18 -1 -36 5 -18 5 -32 -1 -35 -5 -4 -5 -14 1 -25 7 -13 7 -21 0
-25 -8 -5 -8 -11 -1 -19 6 -7 8 -16 5 -19 -8 -8 -9 -85 -1 -93 3 -3 2 -17 -3
-30 -5 -13 -6 -25 -1 -28 8 -5 5 -71 -4 -86 -3 -6 -1 -10 5 -10 7 0 8 -6 1
-18 -6 -11 -6 -24 0 -34 6 -10 6 -19 0 -22 -6 -4 -6 -18 -1 -36 5 -18 5 -32
-1 -35 -5 -4 -5 -14 1 -25 7 -13 7 -21 0 -25 -8 -5 -8 -11 -1 -19 6 -7 8 -16
5 -19 -8 -8 -9 -85 -1 -93 3 -3 2 -17 -3 -30 -5 -13 -6 -25 -1 -28 8 -5 5 -71
-4 -86 -3 -6 -1 -10 5 -10 7 0 8 -6 1 -18 -6 -11 -6 -24 0 -34 6 -10 6 -19 0
-22 -6 -4 -6 -18 -1 -36 5 -18 5 -32 -1 -35 -5 -4 -5 -14 1 -25 7 -13 7 -21 0
-25 -8 -5 -8 -11 -1 -19 6 -7 8 -16 5 -19 -8 -8 -9 -85 -1 -93 3 -3 2 -17 -3
-30 -5 -13 -6 -25 -1 -28 8 -5 5 -71 -4 -86 -3 -6 -1 -10 5 -10 7 0 8 -6 1
-18 -6 -11 -6 -24 0 -34 6 -10 6 -19 0 -23 -7 -3 -7 -15 -1 -30 6 -15 6 -27 0
-30 -6 -4 -7 -13 -1 -24 6 -10 6 -23 1 -31 -5 -8 -5 -21 1 -31 5 -10 5 -20 1
-23 -9 -5 -8 -59 2 -75 4 -5 2 -12 -4 -16 -7 -4 -7 -12 0 -25 7 -13 7 -21 0
-25 -6 -4 -8 -11 -4 -16 8 -14 12 -69 4 -69 -8 0 -4 -59 4 -67 3 -4 1 -12 -5
-19 -7 -8 -7 -14 0 -18 6 -4 1104 1087 2441 2424 1336 1336 2435 2430 2440
2430 6 0 1104 -1094 2441 -2431 1683 -1683 2434 -2427 2439 -2419 5 8 5 23 0
35 -4 12 -4 29 1 38 7 11 6 17 -1 17 -6 0 -8 4 -5 10 9 15 12 91 3 96 -4 3 -3
16 2 29 5 13 6 26 1 29 -8 5 -5 71 4 86 3 6 1 10 -5 10 -7 0 -8 6 -1 18 6 11
6 24 0 34 -6 10 -6 19 0 22 6 4 6 18 1 36 -5 18 -5 32 1 35 5 4 5 14 -1 25 -7
13 -7 21 0 25 7 5 8 11 1 19 -5 6 -7 17 -3 23 8 13 7 81 -2 90 -3 3 -1 14 4
24 6 10 6 20 2 23 -5 3 -6 26 -2 50 4 25 3 51 -1 58 -4 6 -3 20 2 29 5 10 5
20 1 23 -5 3 -6 26 -2 50 4 25 3 51 -1 58 -4 6 -3 20 2 29 5 10 5 20 1 23 -5
3 -6 26 -2 50 4 25 3 51 -1 58 -4 6 -3 20 2 29 5 10 6 20 1 23 -9 5 -6 81 3
96 3 6 1 10 -5 10 -7 0 -8 6 -1 18 6 11 6 24 0 34 -6 10 -6 19 0 22 6 4 6 18
1 36 -5 18 -5 32 1 35 5 4 5 14 -1 25 -7 13 -7 21 0 25 8 5 8 11 1 19 -6 7 -8
16 -5 19 8 8 9 85 1 93 -3 3 -2 17 3 30 5 13 6 25 1 28 -8 5 -5 71 4 86 3 6 1
10 -5 10 -7 0 -8 6 -1 18 6 11 6 24 0 34 -6 10 -6 19 0 22 6 4 6 18 1 36 -5
18 -5 32 1 35 5 4 5 14 -1 25 -7 13 -7 21 0 25 8 5 8 11 1 19 -6 7 -8 16 -5
19 8 8 9 85 1 93 -3 3 -2 17 3 30 5 13 6 25 1 28 -8 5 -5 71 4 86 3 6 1 10 -5
10 -7 0 -8 6 -1 18 6 11 6 24 0 34 -6 10 -6 19 0 22 6 4 6 18 1 36 -5 18 -5
32 1 35 5 4 5 14 -1 25 -7 13 -7 21 0 25 7 5 8 11 1 19 -5 6 -7 17 -3 23 8 13
7 81 -2 90 -3 3 -1 14 4 24 6 10 6 20 2 23 -5 3 -6 26 -2 50 4 25 3 51 -1 58
-4 6 -3 20 2 29 5 10 5 20 1 23 -5 3 -6 26 -2 50 4 25 3 51 -1 58 -4 6 -3 20
2 29 5 10 5 20 1 23 -5 3 -6 26 -2 50 4 25 3 51 -1 58 -4 6 -3 20 2 29 5 10 6
20 1 23 -9 5 -6 81 3 96 3 6 1 10 -5 10 -7 0 -8 6 -1 18 6 11 6 24 0 34 -6 10
-6 19 0 22 6 4 6 18 1 36 -5 18 -5 32 1 35 5 4 5 14 -1 25 -7 13 -7 21 0 25 8
5 8 11 1 19 -6 7 -8 16 -5 19 8 8 9 85 1 93 -3 3 -2 17 3 30 5 13 6 25 1 28
-8 5 -5 71 4 86 3 6 1 10 -5 10 -7 0 -8 6 -1 18 6 11 6 24 0 34 -6 10 -6 19 0
22 6 4 6 18 1 36 -5 18 -5 32 1 35 5 4 5 14 -1 25 -7 13 -7 21 0 25 8 5 8 11
1 19 -6 7 -8 16 -5 19 8 8 9 85 1 93 -3 3 -2 17 3 30 5 13 6 25 1 28 -8 5 -5
71 4 86 3 6 1 10 -5 10 -7 0 -8 6 -1 18 6 11 6 24 0 34 -6 10 -6 19 0 22 6 4
6 18 1 36 -5 18 -5 32 1 35 5 4 5 14 -1 25 -7 13 -7 21 0 25 7 5 8 11 1 19 -5
6 -7 17 -3 23 8 13 7 81 -2 90 -3 3 -1 14 4 24 6 10 6 20 2 23 -5 3 -6 26 -2
50 4 25 3 51 -1 58 -4 6 -3 20 2 29 5 10 5 20 1 23 -5 3 -6 26 -2 50 4 25 3
51 -1 58 -4 6 -3 20 2 29 5 10 5 20 1 23 -5 3 -6 26 -2 50 4 25 3 51 -1 58 -4
6 -3 20 2 29 5 10 6 20 1 23 -9 5 -6 81 3 96 3 6 1 10 -5 10 -7 0 -8 6 -1 18
6 11 6 24 0 34 -6 10 -6 19 0 22 6 4 6 18 1 36 -5 18 -5 32 1 35 5 4 5 14 -1
25 -7 13 -7 21 0 25 8 5 8 11 1 19 -6 7 -8 16 -5 19 8 8 9 85 1 93 -3 3 -2 17
3 30 5 13 6 25 1 28 -8 5 -5 71 4 86 3 6 1 10 -5 10 -7 0 -8 6 -1 18 6 11 6
24 0 34 -6 10 -6 19 0 22 6 4 6 18 1 36 -5 18 -5 32 1 35 5 4 5 14 -1 25 -7
13 -7 21 0 25 8 5 8 11 1 19 -6 7 -8 16 -5 19 8 8 9 85 1 93 -3 3 -2 17 3 30
5 13 6 25 1 28 -8 5 -5 71 4 86 3 6 1 10 -5 10 -7 0 -8 6 -1 18 6 11 6 24 0
34 -6 10 -6 19 0 22 6 4 6 18 1 36 -5 18 -5 32 1 35 5 4 5 14 -1 25 -7 13 -7
21 0 25 7 5 8 11 1 19 -5 6 -7 17 -3 23 8 13 7 81 -2 90 -3 3 -1 14 4 24 6 10
6 20 2 23 -5 3 -6 26 -2 50 4 25 3 51 -1 58 -4 6 -3 20 2 29 5 10 5 20 1 23
-5 3 -6 26 -2 50 4 25 3 51 -1 58 -4 6 -3 20 2 29 5 10 5 20 1 23 -5 3 -6 26
-2 50 4 25 3 51 -1 58 -4 6 -3 20 2 29 5 10 5 20 1 23 -5 3 -6 26 -2 50 4 25
3 51 -1 58 -4 6 -3 20 2 29 5 10 5 20 1 23 -5 3 -6 26 -2 50 4 25 3 51 -1 58
-4 6 -3 20 2 29 5 10 5 20 1 23 -5 3 -6 26 -2 50 4 25 3 51 -1 58 -4 6 -3 20
2 29 5 10 5 20 1 23 -5 3 -6 26 -2 50 4 25 3 51 -1 58 -4 6 -3 20 2 29 5 10 6
20 1 23 -9 5 -6 81 3 96 3 6 1 10 -5 10 -7 0 -8 6 -1 18 6 11 6 24 0 34 -6 10
-6 19 0 22 6 4 6 18 1 36 -5 18 -5 32 1 35 5 4 5 14 -1 25 -7 13 -7 21 0 25 8
5 8 11 1 19 -6 7 -8 16 -5 19 8 8 9 85 1 93 -3 3 -2 17 3 30 5 13 6 25 1 28
-8 5 -5 71 4 86 3 6 1 10 -5 10 -7 0 -8 6 -1 18 6 11 6 24 0 34 -6 10 -6 19 0
22 6 4 6 18 1 36 -5 18 -5 32 1 35 5 4 5 14 -1 25 -7 13 -7 21 0 25 8 5 8 11
1 19 -6 7 -8 16 -5 19 8 8 9 85 1 93 -3 3 -2 17 3 30 5 13 6 25 1 28 -8 5 -5
71 4 86 3 6 1 10 -5 10 -7 0 -8 6 -1 18 6 11 6 24 0 34 -6 10 -6 19 0 22 6 4
6 18 1 36 -5 18 -5 32 1 35 5 4 5 14 -1 25 -7 13 -7 21 0 25 7 5 8 11 1 19 -5
6 -7 17 -3 23 8 13 7 81 -2 90 -3 3 -1 14 4 24 6 10 6 20 2 23 -5 3 -6 26 -2
50 4 25 3 51 -1 58 -4 6 -3 20 2 29 5 10 5 20 1 23 -5 3 -6 26 -2 50 4 25 3
51 -1 58 -4 6 -3 20 2 29 5 10 5 20 1 23 -5 3 -6 26 -2 50 4 25 3 51 -1 58 -4
6 -3 20 2 29 5 10 5 20 1 23 -5 3 -6 26 -2 50 4 25 3 51 -1 57 -4 7 -3 23 2
36 5 12 5 23 0 23 -4 0 -6 12 -3 28 2 15 2 24 -1 21 -7 -6 -447 430 -447 442
0 4 -5 9 -11 11 -14 5 -309 300 -309 309 0 4 -5 9 -10 11 -15 5 -930 920 -930
930 0 4 -4 8 -8 8 -10 0 -652 641 -652 651 0 4 -5 9 -10 11 -15 5 -290 280
-290 290 0 4 -4 8 -8 8 -10 0 -625 615 -630 630 -2 5 -7 10 -11 10 -9 0 -1291
1282 -1291 1292 0 4 -4 8 -8 8 -8 0 -245 234 -260 256 -4 6 -1104 -1087 -2444
-2428z"/>
</g>
</svg>
